<svg width="15" height="7" viewBox="0 0 15 7" fill="none" xmlns="http://www.w3.org/2000/svg">
<path id="Vector" d="M7.48824 6.99764C7.23833 6.99809 6.99614 6.91676 6.80372 6.76775L0.38638 1.77034C0.167959 1.60069 0.0306013 1.3569 0.00452583 1.09261C-0.0215497 0.828322 0.0657924 0.565176 0.247337 0.361065C0.428882 0.156954 0.689759 0.0285965 0.972578 0.00422933C1.2554 -0.0201378 1.53699 0.0614814 1.75541 0.231132L7.48824 4.70882L13.2211 0.39105C13.3305 0.308027 13.4563 0.246028 13.5915 0.208615C13.7266 0.171203 13.8683 0.159115 14.0084 0.173047C14.1486 0.186979 14.2844 0.226656 14.4081 0.289797C14.5318 0.352938 14.6409 0.438299 14.7291 0.540973C14.8271 0.643741 14.9013 0.764305 14.947 0.895111C14.9928 1.02592 15.0092 1.16415 14.9951 1.30114C14.9811 1.43813 14.9369 1.57093 14.8653 1.69123C14.7938 1.81152 14.6965 1.91672 14.5794 2.00022L8.16206 6.82772C7.9641 6.95317 7.72685 7.013 7.48824 6.99764Z" fill="#1B1B1B"/>
</svg>
