<svg width="15" height="7" viewBox="0 0 15 7" fill="none" xmlns="http://www.w3.org/2000/svg">
<path id="Vector" d="M7.51177 0.00236398C7.76167 0.00190767 8.00386 0.0832409 8.19628 0.232245L14.6136 5.22966C14.832 5.39931 14.9694 5.6431 14.9955 5.90739C15.0215 6.17168 14.9342 6.43482 14.7527 6.63893C14.5711 6.84305 14.3102 6.9714 14.0274 6.99577C13.7446 7.02014 13.463 6.93852 13.2446 6.76887L7.51176 2.29118L1.77894 6.60895C1.66954 6.69197 1.54366 6.75397 1.40853 6.79138C1.2734 6.8288 1.1317 6.84088 0.991553 6.82695C0.851411 6.81302 0.715595 6.77334 0.591915 6.7102C0.468236 6.64706 0.359129 6.5617 0.270866 6.45903C0.172916 6.35626 0.0987321 6.23569 0.0529633 6.10489C0.00719461 5.97408 -0.00917329 5.83585 0.00488388 5.69886C0.0189411 5.56187 0.06312 5.42906 0.134655 5.30877C0.206191 5.18847 0.303541 5.08328 0.420605 4.99978L6.83794 0.172276C7.0359 0.0468252 7.27315 -0.0129988 7.51177 0.00236398Z" fill="#1B1B1B"/>
</svg>
