<?xml version="1.0" encoding="utf-8"?>
<!-- Generator: Adobe Illustrator 29.7.1, SVG Export Plug-In . SVG Version: 9.03 Build 0)  -->
<svg version="1.0" id="Layer_1" xmlns="http://www.w3.org/2000/svg" xmlns:xlink="http://www.w3.org/1999/xlink" x="0px" y="0px"
	 viewBox="0 0 1280 1280" style="enable-background:new 0 0 1280 1280;" xml:space="preserve">
<style type="text/css">
	.st0{fill:#FFFFFF;}
	.st1{font-family:'MyriadPro-Regular';}
	.st2{font-size:503.2405px;}
</style>
<g transform="translate(0.000000,1280.000000) scale(0.100000,-0.100000)">
	<path d="M6209,12795c-3-2-81-9-174-15c-919-58-1720-274-2525-681c-596-301-1098-662-1584-1139c-403-396-726-805-1022-1295
		c-105-175-325-613-406-810C242,8232,89,7607,35,6960c-8-102-20-239-25-305c-13-150-13-378-1-498c6-51,15-164,21-252
		c96-1348,649-2669,1554-3705C2685,939,4244,155,5900,30c80-6,198-15,262-20c149-13,364-13,481-1c51,6,164,15,252,21
		c142,10,323,30,425,45c256,40,454,81,688,140c1401,360,2656,1208,3529,2385c628,848,1038,1842,1188,2882c13,95,31,259,40,363
		c8,105,20,240,25,301c13,140,13,375,0,501c-5,54-14,166-20,248c-65,904-349,1843-798,2635c-308,544-656,997-1103,1435
		c-489,479-1003,847-1612,1151c-743,373-1547,596-2357,654c-85,6-199,15-253,20C6549,12800,6217,12804,6209,12795z M6926,11983
		c625-662,1110-1320,1490-2020c141-260,344-689,344-726c0-11-24-23-82-41c-606-182-1189-286-1818-325c-87-5-139-5-147,2
		c-10,7-13,349-13,1647c0,900,3,1640,7,1643C6727,12184,6764,12154,6926,11983z M6094,12124c3-9,6-741,6-1629c0-1278-3-1615-12-1622
		c-31-24-612,31-979,92c-363,61-984,212-1004,245c-3,5,29,87,71,182c353,797,834,1546,1456,2268c149,172,435,480,447,480
		C6084,12140,6091,12133,6094,12124z M5140,12029c0-6-33-50-73-97c-623-737-1165-1613-1507-2434c-17-43-36-80-41-83
		c-26-17-690,297-980,463c-186,107-428,257-471,293l-31,25l60,70c33,38,125,134,204,214c728,733,1648,1262,2644,1520
		C5103,12041,5140,12047,5140,12029z M7896,11989c868-237,1637-647,2309-1233c151-131,377-353,484-475l74-85l-31-25
		c-43-36-284-186-471-293c-270-155-880-447-912-436c-6,2-48,87-93,188c-350,785-873,1608-1443,2272c-75,87-99,128-75,128
		C7743,12030,7814,12012,7896,11989z M1859,9581c427-272,867-502,1306-683c66-28,126-55,132-62c10-9,3-44-33-161
		c-179-596-286-1192-324-1804c-6-107-13-157-22-162c-7-5-522-9-1145-9c-989,0-1133,2-1140,15c-17,30,19,384,67,670
		c92,538,263,1067,505,1560c154,312,421,755,457,755C1668,9700,1756,9647,1859,9581z M11227,9587c442-665,745-1435,877-2227
		c45-268,79-617,63-645c-7-13-146-15-1101-15c-863,0-1096,3-1103,13c-6,6-15,94-22,194c-38,597-152,1203-337,1802
		c-37,117-43,146-32,156c7,6,85,42,173,80c417,178,855,414,1257,675c68,44,130,79,138,78C11148,9696,11187,9646,11227,9587z
		 M8989,8632c37-68,169-567,226-847c76-383,149-1028,121-1074c-11-16-2607-16-2624,1c-18,18-17,1521,1,1535c6,6,73,13,147,17
		c620,30,1343,156,1950,340C8980,8656,8977,8655,8989,8632z M4052,8586c609-178,1285-293,1888-322c74-4,141-11,148-17
		c17-14,18-1517,0-1535c-15-15-2514-17-2537-3c-13,8-13,33-2,178c37,517,123,1006,262,1496c57,198,73,247,84,247
		C3897,8630,3968,8610,4052,8586z M2919,6091c10-6,16-48,22-147c42-689,181-1398,399-2039c24-71,28-92,18-101c-7-7-69-35-138-62
		c-415-166-869-399-1304-670l-169-106l-24,30c-13,16-75,106-137,199c-526,788-843,1670-940,2615c-18,172-22,263-12,278
		C643,6103,2897,6105,2919,6091z M6088,6088c9-9,12-213,12-858c0-465-4-850-8-856c-4-8-74-16-187-23c-630-40-1172-131-1778-298
		c-114-32-171-43-178-36c-13,13-77,205-129,383c-144,498-233,1001-271,1519c-10,137-9,165,2,172C3574,6105,6074,6102,6088,6088z
		 M9337,6089c11-11,11-20-8-264c-41-544-156-1115-335-1667c-30-92-59-170-64-173s-62,11-126,30c-589,179-1244,294-1909,336
		c-113,7-183,15-187,23c-4,6-8,391-8,857c0,644,3,848,12,857C6729,6105,9320,6106,9337,6089z M12163,5978c-1-65-9-180-18-255
		c-108-901-418-1753-910-2498c-136-206-175-257-192-251c-9,4-75,44-147,90c-386,246-861,491-1318,680c-38,16-68,31-68,35
		s16,54,35,112c220,652,368,1408,401,2049c3,74,11,141,17,148c7,9,236,12,1106,10l1096-3L12163,5978z M6094,3734
		c12-30,7-3042-5-3050c-14-8-83,59-275,268c-650,711-1186,1500-1554,2288c-56,120-79,179-73,189c10,16,41,26,253,80
		c220,57,447,105,655,140c267,45,447,66,800,94C6017,3753,6088,3750,6094,3734z M7133,3725c393-38,764-101,1148-195
		c234-58,410-111,416-126c5-15-172-383-284-589c-275-505-642-1040-1031-1505c-170-202-396-451-525-578c-104-102-118-112-136-102
		l-21,11v1539c0,846,3,1546,7,1556c6,15,19,16,142,10C6924,3742,7052,3732,7133,3725z M3650,3113c29-65,104-219,166-343
		c339-676,741-1277,1307-1953c21-26,36-50,33-56c-7-11-83,5-303,65c-887,242-1734,719-2414,1360c-152,144-289,287-289,302
		c0,42,680,422,1045,585c166,74,370,156,386,157C3592,3230,3614,3192,3650,3113z M9477,3128c310-133,675-321,968-498
		c154-93,205-128,205-142c0-27-335-353-535-521c-469-393-984-702-1555-934c-276-112-789-268-810-247c-6,6,13,35,46,74
		c580,677,1076,1453,1447,2263c21,46,42,77,51,77C9302,3200,9384,3168,9477,3128z"/>
</g>
<ellipse cx="994.6" cy="979.94" rx="256.97" ry="293.96"/>
<text transform="matrix(1 0 0 1 875.9998 1133.2598)" class="st0 st1 st2">2</text>
</svg>
